<svg width="171" height="171" viewBox="0 0 171 171" fill="none" xmlns="http://www.w3.org/2000/svg">
<path d="M119.394 112.593C119.961 114.711 119.664 116.967 118.568 118.865C117.472 120.763 115.666 122.149 113.549 122.716L62.7331 136.332C60.6157 136.899 58.3597 136.602 56.4614 135.506C54.563 134.41 53.1777 132.605 52.6101 130.488L38.9939 79.6717C38.4694 77.5686 38.7919 75.3435 39.8919 73.4759C40.992 71.6082 42.7816 70.2473 44.8753 69.6863C46.969 69.1252 49.1993 69.409 51.0858 70.4765C52.9724 71.5439 54.3642 73.3096 54.9615 75.3932L63.768 106.317L103.035 38.3056C104.131 36.4068 105.937 35.0214 108.054 34.4539C110.172 33.8865 112.428 34.1835 114.327 35.2798C116.226 36.376 117.611 38.1816 118.179 40.2993C118.746 42.4171 118.449 44.6735 117.353 46.5722L78.0863 114.584L109.271 106.749C111.388 106.182 113.644 106.479 115.542 107.575C117.441 108.671 118.826 110.476 119.394 112.593Z" fill="#E90712"/>
</svg>
