<svg width="20" height="20" viewBox="0 0 20 20" fill="none" xmlns="http://www.w3.org/2000/svg">
<path d="M17.5294 4.40958C17.819 4.68283 17.9881 5.05968 17.9994 5.45728C18.0107 5.85487 17.8632 6.24066 17.5895 6.52982L9.06932 15.5309C8.93124 15.6765 8.7653 15.793 8.58131 15.8736C8.39732 15.9541 8.19902 15.9971 7.99812 15.9999C7.79722 16.0027 7.59779 15.9652 7.41163 15.8898C7.22546 15.8144 7.05633 15.7026 6.91422 15.5609L2.40354 11.0603C2.13795 10.776 1.99336 10.3998 2.00023 10.0112C2.00711 9.62253 2.1649 9.25172 2.44038 8.97686C2.71586 8.702 3.08751 8.54456 3.47704 8.5377C3.86656 8.53085 4.24355 8.67511 4.52857 8.9401L7.94667 12.3485L15.4043 4.46958C15.6782 4.18054 16.0559 4.01185 16.4544 4.0006C16.8529 3.98935 17.2395 4.13646 17.5294 4.40958Z" fill="#A9050D"/>
</svg>
